<svg width="2416" height="2074" viewBox="0 0 2416 2074" fill="none" xmlns="http://www.w3.org/2000/svg">
<g clip-path="url(#clip0_44_1810)">
<g filter="url(#filter0_d_44_1810)">
<path d="M377 848C377 612.778 377 495.167 422.777 405.324C463.044 326.296 527.296 262.044 606.324 221.777C696.167 176 813.778 176 1049 176H1427C1662.22 176 1779.83 176 1869.68 221.777C1948.7 262.044 2012.96 326.296 2053.22 405.324C2099 495.167 2099 612.778 2099 848V1226C2099 1461.22 2099 1578.83 2053.22 1668.68C2012.96 1747.7 1948.7 1811.96 1869.68 1852.22C1779.83 1898 1662.22 1898 1427 1898H1049C813.778 1898 696.167 1898 606.324 1852.22C527.296 1811.96 463.044 1747.7 422.777 1668.68C377 1578.83 377 1461.22 377 1226V848Z" fill="url(#paint0_linear_44_1810)"/>
<g filter="url(#filter1_d_44_1810)">
<ellipse cx="1294.5" cy="752.5" rx="882.5" ry="273.5" fill="#060727"/>
</g>
<g filter="url(#filter2_d_44_1810)">
<path d="M1917.92 1276.96C1942.14 1426.06 1596 1396.5 1176.5 1488C750.002 1606.5 638 1691 654.005 1588.5C629.784 1439.41 752.491 1189.2 1151.53 1124.38C1550.57 1059.55 1893.7 1127.87 1917.92 1276.96Z" fill="#060727"/>
</g>
<g filter="url(#filter3_d_44_1810)">
<path fill-rule="evenodd" clip-rule="evenodd" d="M678.649 517.198C1008.14 451.301 1441.41 428.37 1900.02 482.692C2017.65 505.11 2156.07 527.598 2270.03 564.396C2237.48 760.988 2215.04 973.808 2198.12 1169.28C2106.4 1157.25 2045.62 1148.79 1965.69 1141C1988.18 1214.25 2014.23 1311.76 2036.49 1399.7C1783.36 1366.08 1364.11 1436.66 1096.13 1511.99C1001.65 1537.97 908.225 1567.63 816.066 1600.94C785.76 1612.01 755.629 1623.55 725.686 1635.57C715.244 1639.73 688.227 1651.42 678.649 1654.24C645.853 1667.64 611.963 1683.35 579.343 1697.62C587.815 1681.15 615.005 1640.26 625.692 1623.87C626.383 1621.25 640.486 1599.44 642.477 1596.32C663.472 1563.41 684.798 1530.71 706.451 1498.22C715.949 1484.06 726.827 1466.17 735.657 1451.97C606.693 1483.86 479.246 1521.61 353.711 1565.09C375.463 1454.59 389.267 1366.3 400.621 1267.68C368.563 1272.8 251.176 1301.1 182 1313.98C182 1119.41 206.267 917.347 206.267 669.117L252.796 621.03C444.256 554.91 465.744 559.779 678.649 517.198Z" fill="url(#paint1_linear_44_1810)"/>
<path d="M703.142 488.852C1032.63 422.955 1465.9 400.024 1924.51 454.347C2042.15 476.764 2180.57 499.252 2294.52 536.051C2261.97 732.642 2239.53 945.462 2222.61 1140.93C2130.89 1128.91 2070.11 1120.45 1990.19 1112.66C2012.67 1185.9 2038.72 1283.41 2060.98 1371.35C1807.85 1337.73 1388.6 1408.31 1120.62 1483.65C1026.14 1509.63 932.717 1539.29 840.559 1572.59C810.252 1583.66 780.121 1595.2 750.178 1607.22C739.737 1611.39 712.719 1623.08 703.142 1625.89C670.346 1639.29 636.455 1655.01 603.835 1669.27C612.307 1652.8 639.498 1611.91 650.185 1595.52C650.875 1592.91 664.979 1571.09 666.969 1567.97C687.964 1535.06 709.29 1502.37 730.943 1469.88C740.442 1455.71 751.319 1437.83 760.149 1423.62C631.185 1455.51 503.738 1493.27 378.203 1536.75C399.955 1426.25 413.759 1337.96 425.113 1239.33C393.055 1244.45 275.668 1272.75 206.492 1285.64C206.492 1091.06 213.394 921.642 213.394 673.412L255.248 622.431C446.708 556.31 490.236 531.434 703.142 488.852Z" fill="#FFC511"/>
<path d="M699.547 489.145C1029.04 423.247 1462.3 400.317 1920.92 454.64C2038.55 477.057 2176.97 499.545 2290.93 536.344C2258.38 732.935 2235.94 945.756 2219.02 1141.22C2127.29 1129.2 2066.52 1120.74 1986.59 1112.95C2009.08 1186.19 2035.13 1283.71 2057.39 1371.64C1804.26 1338.03 1385.01 1408.6 1117.03 1483.94C1022.55 1509.92 929.123 1539.58 836.965 1572.89C806.658 1583.96 776.527 1595.49 746.584 1607.52C736.143 1611.68 709.125 1623.37 699.547 1626.18C666.751 1639.58 632.861 1655.3 600.241 1669.57C608.714 1653.09 635.904 1612.2 646.591 1595.82C647.282 1593.2 661.384 1571.39 663.374 1568.26C684.369 1535.35 705.696 1502.66 727.35 1470.17C736.848 1456 747.725 1438.12 756.556 1423.91C627.591 1455.81 500.144 1493.56 374.609 1537.04C396.362 1426.54 410.165 1338.25 421.519 1239.63C389.46 1244.75 272.074 1273.05 202.898 1285.93C202.898 1091.36 209.8 921.935 209.8 673.705L251.654 622.724C443.114 556.604 486.642 531.726 699.547 489.145Z" fill="url(#paint2_linear_44_1810)"/>
<path d="M1106.35 478.178C1491.94 447.999 1856.46 463.07 2230.17 560.404L2232.43 560.992L2232.14 563.311C2212.33 726.971 2187.85 921.48 2174.94 1081.93L2174.71 1084.76L2171.9 1084.36C2084.14 1071.82 2016.58 1061.49 1927.42 1061.24C1935.14 1094 1947.22 1136.81 1958.21 1180.37C1969.53 1225.25 1979.66 1270.81 1982.37 1306.14L1982.61 1309.24L1979.51 1309.01C1836.15 1298.31 1651.45 1315.22 1510.22 1337.78L1510.21 1337.78C1381.73 1357.85 1254.52 1385.41 1129.26 1420.31C1011.8 1454.29 831.254 1504.85 722.161 1559.34L713.569 1563.64L718.71 1555.53C746.086 1512.33 788.307 1471.28 831.53 1432.55C872.58 1395.77 914.452 1361.14 945.98 1328.46C777.003 1351.24 636.619 1389.13 474.177 1438.25L470.523 1439.35L470.736 1435.54C475.569 1349.22 483.58 1259.56 494.123 1174.51C430.969 1186.45 327.45 1207.7 268.516 1221.23L265.247 1221.98V1218.63C265.247 1045.57 268.915 876.267 261.573 711.964L261.541 711.241L261.878 710.601C268.11 698.76 282.104 680.739 290.167 669.859L290.562 669.328L291.158 669.042C301.91 663.884 325.373 655.846 336.959 651.434L336.965 651.432C382.018 634.398 427.427 618.323 473.163 603.219C682.731 530.19 885.403 497.239 1106.33 478.18L1106.34 478.179L1106.35 478.178Z" fill="url(#paint3_linear_44_1810)" stroke="white" stroke-width="5.34307"/>
<g filter="url(#filter4_d_44_1810)">
<path d="M835.223 903.923C849.749 903.852 869.488 900.599 884.051 898.493L951.574 888.632C968.172 886.21 984.57 883.914 1001.18 882.311C1014.35 881.042 1015.15 861.15 1016.22 851.323C1017.24 841.961 1004.08 843.074 997.831 842.278C971.063 842.302 942.991 841.137 916.405 840.707C877.921 840.086 845.87 834.615 845.007 788.969C844.478 772.391 845.941 754.94 848.598 738.572C852.816 712.584 853.671 681.722 863.071 657.064C867.888 644.366 875.352 632.84 884.964 623.251C927.739 580.626 1029.29 573.877 1088.78 568.477C1166.24 561.447 1251.45 554.4 1329.21 554.846C1316.73 577.211 1314.1 616.438 1310.99 642.199L1298.96 747.118C1294.49 786.213 1290.25 825.335 1286.23 864.482C1284.05 885.501 1281.02 909.154 1281.23 930.264C1281.3 938.336 1287.11 947.505 1291.24 954.14C1246.54 955.147 1191.37 961.213 1146.24 965.354C1151.33 957.389 1159.74 942.565 1161.33 933.758C1166.96 902.566 1169.24 869.395 1173.27 837.872C1183.94 756.723 1193.39 675.419 1201.62 593.987C1201.93 591.718 1201.81 590.212 1201.72 587.96C1197.18 583.059 1189.41 582.345 1182.65 580.822C1177.78 579.381 1175.22 578.337 1170.61 576.354C1163.3 599.522 1140.31 650.922 1129.86 676.107C1106.64 675.755 985.258 682.107 975.423 692.578C973.99 694.103 973.229 695.787 972.676 697.79C970.764 705.666 967.366 721.88 969.181 729.843C969.558 733.247 976.59 733.775 979.62 734.004C1012.06 736.209 1046.07 737.631 1078.25 740.588C1151.87 748.597 1147.53 787.631 1141.87 845.407C1131.71 949.137 1115.65 966.191 1014.66 981.18C989.999 984.748 965.356 988.447 940.732 992.277C876.902 1002.66 813.309 1014.44 749.998 1027.63C709.246 1036.19 675.402 1042.55 635.74 1055.04C656.504 1020.98 655.367 1022.5 660.448 983.284L669.126 912.283L685.493 785.063C688.328 763.649 699.958 678.767 696.98 659.399C694.379 655.331 688.777 650.565 684.156 649.109C664.781 708.677 639.849 771.01 619.205 830.577C614.461 844.266 596.837 895.923 591.27 906.896C575.975 957.212 554.194 1007.81 537.325 1057.82C534.906 1064.99 531.859 1073.46 528.963 1080.37L447.398 1103.3C422.393 1110.26 386.863 1117.83 365.992 1130.47C368.936 1102.82 364.018 1075.71 362.715 1048.03C362.423 1041.82 360.982 1028.56 361.35 1023.16C358.64 1008.37 356.757 972.56 355.491 956.536L345.119 814.992C343.65 793.997 342.714 769.507 339.025 748.714C338.566 746.13 335.847 743.645 333.888 741.872C328.291 736.815 322.94 730.627 317.836 725.007C367.263 709.472 425.274 693.574 475.573 681.077C472.547 689.261 469.878 697.685 469.652 706.529C468.09 767.471 470.551 828.526 470.235 889.509C470.164 903.152 470.189 921.388 472.103 934.661C496.701 857.306 525.289 777.005 547.691 699.298C549.671 691.345 548.886 691.967 543.448 686.826C538.847 684.261 525.001 673.059 520.159 669.286C625.879 642.067 732.765 619.603 840.498 601.96C836.34 608.822 829.819 620.353 828.631 627.891C824.852 651.889 821.982 676.97 818.973 701.049L801.489 843.906L790.169 939.087C788.249 955.097 784.371 981.799 784.414 997.275C799.432 1002.19 807.577 1003.66 823.075 1005.22C816.812 992.393 818.761 986.369 821.414 972.845C825.909 949.932 829.942 926.646 835.223 903.923Z" fill="white"/>
</g>
<path d="M1155.29 583.616C1161.45 580.064 1163.93 578.544 1170.61 576.352C1163.29 599.52 1140.3 650.92 1129.85 676.105C1106.64 675.753 985.252 682.105 975.417 692.576C973.984 694.101 973.223 695.785 972.669 697.788C972.292 696.089 971.9 694.325 971.844 692.58C971.713 688.54 973.153 684.479 975.943 681.546C986.24 670.725 1097.51 662.953 1118.52 662.169C1126.69 642.805 1145.17 601.166 1155.29 583.616Z" fill="#E1E9F4"/>
<path d="M1101.67 770.801C1106.17 770.234 1112.55 770.037 1117.24 769.77C1122.13 773.989 1126.23 777.953 1128.94 783.903C1138.6 805.097 1124.78 888.561 1116.38 911.365C1108.21 933.532 1093.18 949.692 1071.68 959.489C1062.59 963.633 1052.88 966.493 1043.12 968.572C1009.87 975.648 975.352 979.29 941.77 984.706L861.529 997.617C853.067 998.894 843.929 1003.34 835.523 1000.21C827.183 987.416 841.178 935.878 844.919 917.88C856.719 917.046 876.515 913.316 888.755 911.394C916.333 907.203 943.886 902.855 971.413 898.348C983.662 896.359 1021.63 893.37 1026.07 881.444C1051.82 812.163 1016.86 833.186 969.469 828.231C930.246 824.129 874.683 839.2 858.849 793.86C882.962 789.782 913.639 787.342 938.541 784.833C992.842 779.31 1047.22 774.632 1101.67 770.801Z" fill="#E1E9F4"/>
<path d="M581.541 864.603C584.07 863.946 583.926 864.043 586.521 864.538C587.435 867.758 582.102 880.243 580.661 884.33C571.227 910.749 561.501 937.063 551.484 963.268C541.234 990.858 523.137 1046.89 511.462 1071.15C494.817 1075.5 403.106 1101.44 393.74 1100.49C389.563 1094.32 385.452 1040.93 384.404 1030.05C379.928 996.774 376.533 947.927 374.383 913.914C399.865 907.566 432.442 898.507 457.746 893.952C457.845 916.896 458.606 943.906 460.098 966.729L474.205 957.986C484.087 932.775 495.306 907.121 505.914 882.18C527.684 876.288 559.846 868.74 581.541 864.603Z" fill="#E1E9F4"/>
<path d="M783.443 806.439C786.593 805.777 786.72 805.931 789.797 806.282C790.301 807.147 790.805 808.012 791.309 808.878C784.611 871.975 775.41 934.872 768.155 997.863C767.225 1005.93 771.407 1009.21 775.997 1014.15C746.887 1021.57 710.539 1025.79 679.479 1033.06L664.781 1036.07C672.55 1015 675.516 974.734 678.426 951.181C683.804 907.647 688.147 864.912 694.841 821.425C719.617 815.71 757.633 810.604 783.443 806.439Z" fill="#E1E9F4"/>
<path d="M1255.77 761.913C1262.58 761.1 1276.98 760.971 1284.34 760.693L1272.18 866.622C1269.84 886.557 1261.78 929.467 1269.48 946.867L1198.52 952.434L1168.21 954.727C1177.6 935.194 1181.76 880.604 1184.44 856.65C1187.77 826.014 1191.28 795.399 1194.98 764.805L1255.77 761.913Z" fill="#E1E9F4"/>
<path d="M995.268 589.367C997.256 589.133 997.403 589.339 999.433 589.634C992.527 594.587 935.072 603.469 922.86 613.241C923.27 612.912 885.435 633.672 887.021 633.158C886.66 634.573 886.551 634.219 885.289 635.559L885.305 633.598C908.937 598.715 957.793 596.775 995.268 589.367Z" fill="#E1E9F4"/>
<g filter="url(#filter5_d_44_1810)">
<path d="M1728.72 561.275C1761.32 563.909 1793.88 566.999 1826.39 570.545C1843.22 572.335 1860.59 574.018 1877.32 576.486C1882.66 577.272 1882.76 578.539 1885.36 582.267C1887.19 589.467 1900.3 616.159 1904.21 624.784C1921.2 662.222 1939.1 699.45 1957.02 736.445C1962.4 747.543 1965.87 765.526 1970.47 777.756L1977.65 665.011C1978.66 647.428 1980.1 629.639 1979.61 612.044C1979.5 608.327 1977.69 606.147 1975.83 603.19C1971.94 597.43 1969.77 593.726 1966.51 587.567C2010.67 595.066 2055.13 601.033 2099.24 608.797C2105.19 609.843 2111.19 610.641 2117.09 611.971L2118.98 613.418C2119.59 620.405 2114.76 672.833 2113.95 683.485L2100.28 862.29C2098.11 889.115 2096.14 915.956 2094.38 942.81C2093.89 950.158 2092.54 977.203 2091.11 983.568C2090.75 998.926 2091.74 1005.54 2094.25 1020.37C2059.38 1007.95 1983.42 993.805 1946.06 987.674C1920.09 941.237 1899.55 887.692 1873.03 841.083C1858.69 815.862 1849.9 787.424 1836.87 761.38C1835.97 769.922 1835.83 778.995 1835.51 787.598C1833.38 843.792 1831.41 900.054 1831.06 956.283C1831.03 960.525 1832.98 966.979 1834.21 971.095C1790.7 964.171 1734.78 960.411 1690.14 956.708C1697.41 945.733 1703.38 935.047 1705.11 921.822C1708.39 896.805 1710.35 871.68 1712.62 846.557L1723.14 731.643C1727.25 685.435 1732.83 638.429 1735.11 592.178C1735.61 581.972 1731.91 570.919 1728.72 561.275Z" fill="white"/>
</g>
<path d="M1885.36 582.268C1887.19 589.468 1900.3 616.16 1904.21 624.784C1921.2 662.223 1939.1 699.45 1957.02 736.445C1962.4 747.543 1965.87 765.527 1970.47 777.757L1977.65 665.011C1978.66 647.428 1980.09 629.639 1979.61 612.045C1979.5 608.328 1977.69 606.147 1975.83 603.19L1993.38 606.813C1991.85 663.07 1983.54 732.158 1979.71 789.517C2012.78 793.037 2045.82 796.934 2078.81 801.205C2074.18 866.603 2067.56 931.671 2063.38 997.305C2031.16 988.728 1991.9 984.996 1958.94 977.83C1956.53 974.257 1954.62 970.373 1952.61 966.555C1919.77 903.938 1889.44 840.046 1857.09 777.179C1891.29 778.496 1929.88 785.242 1964.9 787.593C1944.75 741.624 1922.98 695.884 1902.65 650.034C1896.39 635.915 1878.12 598.127 1874.65 585.081C1877.03 582.938 1881.94 582.758 1885.36 582.268Z" fill="#E1E9F4"/>
<path d="M1734.31 765.807C1764.62 767.684 1796.82 770.768 1827.1 773.589C1825.59 792.341 1812.04 950.588 1808.18 954.615C1781.4 953.87 1738.12 952.306 1712.16 949.86C1722.2 933.83 1723.44 889.954 1725.11 870.023L1734.31 765.807Z" fill="#E1E9F4"/>
<g filter="url(#filter6_d_44_1810)">
<path d="M1368.93 585.084C1404.97 541.378 1481.23 549.494 1532.42 550.1C1576.48 550.623 1641.87 546.016 1672.05 583.022C1702.43 629.714 1682.96 694.7 1680.65 747.181C1680.1 759.557 1677.51 790.857 1674.87 802.414C1670.23 858.181 1672.04 934.613 1599.75 945.73C1564.38 951.168 1525.97 948.109 1489.99 948.799C1456.97 949.434 1422.59 948.857 1389.6 947.447C1308.02 941.241 1319.68 871.985 1325.65 814.601C1328.7 785.483 1331.9 756.381 1335.27 727.298C1336.5 712.782 1338.62 697.149 1340.2 682.584C1343.91 648.603 1346.62 612.821 1368.93 585.084Z" fill="white"/>
</g>
<path d="M1558.99 755.178C1591.86 756.606 1624.72 758.289 1657.56 760.227C1656.88 785.862 1652.7 813.025 1650.51 838.634C1648.3 864.394 1645 887.089 1632.15 909.997C1610.57 944.109 1564.14 940.276 1528.25 941.159C1485.8 942.204 1442.25 943.73 1399.85 941.642C1322.01 937.811 1333.32 881.07 1340.78 825.071C1343.89 802.722 1346.65 780.324 1349.06 757.887C1378.59 757.617 1409.38 756.394 1439.09 755.791C1443.05 755.64 1443.94 755.687 1447.82 756.464C1453.32 764.516 1435.7 837.307 1446.31 854.146C1456.72 861.982 1534.57 861.69 1539.41 854.213C1552.54 833.898 1556.12 779.542 1558.99 755.178Z" fill="#E1E9F4"/>
<path d="M1493.57 648.725C1505.84 648.397 1533.73 644.692 1543.41 651.785C1545.31 653.181 1545.28 654.769 1545.63 657.005C1548.58 676.06 1536.93 831.534 1528.91 841.573C1525.62 845.714 1521.64 845.848 1516.72 846.539C1502.62 846.894 1486.01 848.782 1472.1 846.23C1469.41 845.736 1465.49 844.696 1464.05 842.199C1457.04 829.956 1476.16 695.986 1480.49 673.388C1482.6 662.367 1483.77 655.377 1493.57 648.725Z" fill="#0B0E43"/>
<path d="M1194.64 1028.41C1253.16 1021.82 1253.62 1074.78 1238.93 1116.38C1231.84 1136.43 1214.41 1143.99 1196.01 1151.24C1214.25 1163.24 1230.43 1195.35 1238.52 1215.69C1217.67 1217.96 1196.82 1220.38 1175.99 1222.95C1164.79 1202.77 1152.99 1181.43 1139.48 1162.8C1132.42 1163.1 1124.27 1163.98 1117.14 1164.58C1115.34 1164.88 1113.77 1165.51 1112.03 1166.1C1107.78 1173.38 1105.01 1219.68 1104.01 1231.56C1082.61 1234.54 1061.22 1237.63 1039.84 1240.84C1040.45 1225.82 1045.38 1194.85 1047.33 1178.49L1063.27 1041.82C1103.35 1036.39 1154 1031.92 1194.64 1028.41Z" fill="#FDCD2A"/>
<path d="M1137.43 1144.96C1142.31 1144.81 1155.8 1144.25 1159.64 1146.93C1155.62 1159.76 1188.96 1164.46 1197.3 1170.35C1208.8 1178.48 1215.14 1194.21 1221.52 1206.4L1183.87 1210.17C1171.58 1192.46 1160.09 1166.89 1142.99 1154.45C1136.91 1154.27 1130.44 1154.33 1124.32 1154.27C1117.02 1154.57 1107.57 1155.72 1100.14 1156.4C1099.94 1175.61 1096.14 1202.74 1093.91 1222.25C1081.89 1224.76 1067.93 1226.8 1055.7 1228.88C1056.81 1205.27 1062.92 1174.3 1065.14 1149.38C1085.79 1149.25 1114.99 1145.9 1137.43 1144.96Z" fill="#FDB02A"/>
<path d="M1171.55 1075.51C1175.24 1075.08 1181.48 1074.01 1184.34 1076.16C1192.9 1083.16 1188.78 1100.38 1182.87 1107.82C1175.79 1116.72 1159.92 1117.04 1149.44 1118.36C1143.13 1119.16 1136.2 1119.72 1129.74 1120.35L1114.24 1121.74C1115.71 1107.45 1116.78 1094.91 1117.43 1080.58C1135.29 1079.15 1153.68 1077.21 1171.55 1075.51Z" fill="#0B0E47"/>
<path d="M794.807 1080.39C797.128 1079.98 798.771 1080 801.107 1079.91C803.965 1083.34 800.09 1119.6 799.633 1127.74C781.533 1130.84 691.395 1145.39 680.14 1152.04C674.728 1158.47 675.852 1169.78 675.769 1178.36C690.369 1176.64 705.026 1174.82 719.505 1172.27C735.399 1169.47 753.274 1164.2 769.386 1164.84C775.041 1165.07 780.048 1166.83 784.864 1169.77C792.665 1174.51 797.564 1182.08 799.703 1190.87C804.912 1212.28 799.15 1242.49 787.509 1260.82C782.012 1269.48 774.329 1278.05 765.541 1283.47C737.345 1300.84 650.789 1315.17 614.991 1322.94C611.795 1323.68 608.124 1324.88 605.623 1322.78C604.979 1311.18 607.896 1282.4 609.082 1270.19C626.853 1267.72 727.839 1249.25 734.334 1242.39C740.072 1236.34 738.424 1222.76 738.075 1215.24C708.439 1219.46 618.974 1249.23 615.018 1201.77C607.747 1114.49 655.546 1106.17 724.71 1093.13C748.017 1088.56 771.385 1084.32 794.807 1080.39Z" fill="#FDCD2A"/>
<path d="M768.466 1183.56C780.351 1182.13 786.845 1182.44 788.932 1196.99C795.866 1245.3 770.547 1279.43 723.213 1289.92C688.64 1297.59 653.701 1305.2 619 1312.68C619.253 1302.16 619.649 1291.65 620.188 1281.14C635.979 1279.63 670.308 1271.02 686.644 1267.32C702.211 1263.99 733.912 1259.94 743.593 1247.42C748.673 1240.85 754.556 1209.29 742.291 1208.18C709.973 1205.23 672.546 1225.87 640.378 1216.55C634.35 1214.8 627.153 1204.78 631.44 1197.62C638.572 1192.78 664.667 1192.89 674.909 1191.99L768.466 1183.56Z" fill="#FDB02A"/>
<path d="M980.302 1051.94C1045.97 1041.6 1032 1125.12 1011.5 1158.68C990.933 1192.36 929.344 1196.53 891.894 1202.88C891.566 1220.39 889.67 1248.02 887.686 1265.33C882.394 1266.67 876.322 1267.76 870.908 1268.85L826.93 1277.02C827.532 1253.64 830.46 1227.67 832.351 1204.01C835.732 1159.99 839.364 1115.98 843.248 1072C887.426 1065.51 936.297 1056.52 980.302 1051.94Z" fill="#FDCD2A"/>
<path d="M984.634 1161.04C988.186 1160.5 988.088 1160.44 991.589 1161.05L991.481 1162.96C973.658 1182.13 908.107 1190.55 881.266 1194.53C879.649 1214.78 878.933 1237.37 877.856 1257.84L848.462 1262.92C844.998 1263.61 844.694 1263.83 841.43 1262.83C839.784 1257.62 846.05 1185.91 847.071 1175.82C891.398 1172.58 940.374 1166.05 984.634 1161.04Z" fill="#FDB02A"/>
<path d="M950.501 1101.47C954.742 1100.62 961.047 1099.77 964.895 1101.7C975.297 1111.71 967.204 1139.9 954.06 1143.6C943.413 1146.61 928.79 1147.72 917.596 1149.05L896.422 1152.54C898.022 1141.47 898.31 1120.63 898.816 1108.8C916.032 1106.27 933.26 1103.83 950.501 1101.47Z" fill="#0B0E47"/>
<path d="M1440.08 1014.83L1450.23 1014.96C1472.53 1047.47 1497.67 1083.36 1518.4 1116.68L1527.65 1015.62L1584.27 1016.8C1582.1 1033.24 1580.76 1053.81 1579.12 1070.72L1566.61 1200.65L1511.98 1200.48L1506.38 1193.25L1434.7 1088.02L1425.41 1202.51C1408.88 1204.38 1384.21 1204.92 1367.03 1205.74C1367.35 1197.39 1368.11 1188.17 1369.05 1179.86C1375.17 1125.52 1378.8 1070.65 1384.94 1016.36L1440.08 1014.83Z" fill="#FDCD2A"/>
<path d="M1472.6 1125.39C1502.61 1126.83 1531.08 1130.03 1560.93 1133.47C1560.72 1147.48 1557.63 1172.68 1556.22 1187.49L1555.04 1190.47C1549.7 1192.18 1527.61 1191.36 1520.92 1191.25C1504.7 1170.53 1487.95 1146.84 1472.6 1125.39Z" fill="#FDB02A"/>
<path d="M1386.1 1118.09C1397.64 1118.83 1409.22 1119.34 1420.78 1119.61C1420.15 1141.74 1417.41 1169.93 1415.36 1192.25C1403.69 1192.68 1392.03 1193.34 1380.38 1194.22C1381.09 1170.47 1384.11 1142.1 1386.1 1118.09Z" fill="#FDB02A"/>
<path d="M1422.92 1294.5C1511.19 1288.96 1658.24 1281.65 1658.24 1281.65C1618.5 1284.91 1485.05 1304.88 1445.43 1309.32C1315.85 1324.77 1199.44 1344.62 1074.24 1382.87C1002.72 1404.7 946.735 1422.6 879.266 1455.8C887.924 1447.94 897.535 1438.84 906.451 1431.47C916.324 1422.69 951.425 1392.21 961.217 1387.1C980.179 1377.2 1002.79 1368.99 1023.75 1361.96C1161.61 1316.28 1258.45 1304.81 1422.92 1294.5Z" fill="#C46BF5"/>
<path d="M1662.7 1281.21C1577.87 1292.27 1524 1299.95 1445.43 1309.32C1315.85 1324.77 1199.44 1344.62 1074.24 1382.86C1002.72 1404.7 946.735 1422.6 879.266 1455.8C887.924 1447.94 897.535 1438.84 906.451 1431.46C957.187 1408.48 1027.64 1389.11 1075.59 1374.29C1161.64 1347.95 1220.56 1329.89 1334.99 1315.87C1458.99 1300.67 1556.95 1290.71 1662.7 1281.21Z" fill="url(#paint4_linear_44_1810)"/>
<path d="M1614.05 1018.38C1677.47 1021.43 1740.86 1025.5 1804.15 1030.61C1802.37 1045.75 1800.75 1061.27 1798.17 1076.26C1775.66 1074.77 1753.19 1073.03 1730.72 1071.05C1726.59 1094.48 1725.01 1120.26 1721.61 1144.27C1720.77 1159.95 1715.91 1190.71 1713.94 1207.93C1694.56 1207.42 1675.18 1206.42 1655.85 1204.93C1658.58 1161.78 1667.73 1111.51 1671.76 1067.08C1650.82 1065.71 1629.89 1065.7 1608.86 1063.62C1611.14 1048.86 1611.41 1033.4 1614.05 1018.38Z" fill="#FDCD2A"/>
<path d="M1674.69 1144.58C1685.52 1146.28 1698.67 1147.23 1709.76 1148.29C1708.05 1164.53 1705.67 1181.2 1703.55 1197.42C1696.47 1198.41 1676.89 1196.91 1669.15 1196.46C1669.66 1182.21 1672.89 1159.1 1674.69 1144.58Z" fill="#FDB02A"/>
<path d="M1321.75 1019.92C1328.88 1019.04 1338.94 1018.84 1346.3 1018.46C1343.85 1035.63 1342.52 1059.69 1340.87 1077.68L1328.62 1208.28C1315.53 1209.09 1302.61 1209.83 1289.55 1211.19L1267.92 1212.76C1271.95 1152.21 1280.28 1082.9 1286.4 1022.12L1321.75 1019.92Z" fill="#FDCD2A"/>
<path d="M1313.34 1120.13C1317.38 1119.58 1318.67 1119.73 1322.8 1119.99C1325.73 1123.84 1318.58 1187.74 1317.64 1198.14C1310.48 1198.94 1303 1199.41 1295.78 1199.98L1281.57 1201.24C1282.05 1177.27 1286.34 1145.91 1289.09 1121.91L1313.34 1120.13Z" fill="#FDB02A"/>
<path d="M2026.24 1374.2C1982.36 1366.16 1937.24 1361.34 1892.5 1358.51C1628.47 1344.94 1363.77 1380.63 1106.73 1446.13L1106.9 1446.08C1011.28 1470.8 916.699 1499.79 823.588 1532.95L823.484 1532.99C792.805 1544.03 762.311 1555.61 732.027 1567.73L732.098 1567.7C721.911 1571.81 713.014 1575.62 703.881 1579.31C698.135 1581.64 690.954 1584.45 687.997 1585.34L684.802 1586.46C650.378 1600.58 617.45 1616 584.868 1630.43L627.266 1675.58C638.819 1654.33 655.975 1628.65 671.456 1604.45L675.634 1595.04C674.84 1597.91 674.407 1598.66 674.226 1599.14C674.116 1599.39 674.029 1599.58 673.959 1599.73C673.903 1599.85 673.86 1599.93 673.825 1600.01C673.682 1600.29 673.688 1600.26 673.718 1600.2C673.782 1600.07 673.995 1599.68 674.218 1599.28C674.683 1598.44 675.272 1597.43 675.88 1596.4C677.102 1594.34 678.435 1592.14 679.783 1589.95C682.512 1585.5 685.222 1581.19 688.193 1576.46L688.182 1576.48C708.763 1543.56 729.606 1510.79 750.708 1478.19L750.662 1478.26C761.181 1462.06 770.477 1446.17 779.771 1430.7L819.094 1368.8L747.168 1385.84C617.833 1419.94 490.381 1460.86 365.581 1508.32L392.869 1532.05C409.497 1432.59 422.148 1332.24 429.371 1231.76L431.366 1218.99L417.72 1220.61C387.873 1227.16 359.54 1235.23 330.705 1242.88C287.437 1254.49 244.215 1266.44 200.695 1276.91C245.055 1270.78 289.314 1262.91 333.438 1255.19C362.642 1250.15 392.373 1244.43 420.912 1240.6L409.261 1229.45C393.87 1328.52 374.35 1426.44 351.944 1523.99L345.781 1560.31L379.232 1547.73C505.457 1508.24 632.984 1473.63 761.537 1443.95L728.935 1399.09C718.976 1414.58 709.369 1429.92 699.631 1444.05L699.585 1444.11C677.385 1476.48 655.573 1509.11 634.161 1542.01L634.15 1542.03C631.322 1546.35 628.222 1551.1 625.236 1555.78C623.728 1558.15 622.22 1560.53 620.662 1563.07C619.876 1564.35 619.086 1565.65 618.211 1567.15C617.781 1567.89 617.302 1568.73 616.755 1569.74C616.441 1570.32 616.174 1570.82 615.714 1571.75C615.606 1571.97 615.495 1572.2 615.374 1572.46C615.224 1572.78 615.064 1573.13 614.889 1573.54C614.594 1574.27 614 1575.44 613.143 1578.55L617.321 1569.14C601.213 1593.64 585.329 1615.92 568.81 1645.51L526.717 1727.87L611.208 1690.66C644.817 1676.14 677.433 1661.1 709.887 1647.86L706.692 1648.98C716.608 1645.87 721.985 1643.48 728.783 1640.8C738.402 1636.91 748.133 1632.75 756.664 1629.29L756.735 1629.26C786.332 1617.34 816.106 1605.84 846.039 1594.75L845.935 1594.78C937.111 1561.35 1029.44 1531 1122.76 1503.76L1122.92 1503.72C1372.16 1431.94 1630.68 1380.89 1892.27 1371.11C1936.73 1369.96 1981.79 1370.54 2026.24 1374.2Z" fill="#9ED9FF"/>
<path d="M1082.41 1532.19C1076.54 1510.87 1070.68 1489.55 1064.82 1468.22C1044.64 1474.34 1024.65 1480.85 1004.81 1487.63C930.792 1512.95 859.083 1542.12 787.568 1570.15L787.487 1570.18C757.23 1582.15 727.169 1594.59 697.324 1607.5L697.373 1607.48C681.605 1614.34 665.195 1622.13 652.733 1626.76L650.673 1627.48C616.961 1642.32 584.508 1658.47 552.049 1673.72L575.88 1699.1C587.914 1675.67 604.255 1650.32 619.321 1625.72L621.408 1621.02C621.024 1622.38 620.844 1622.66 620.779 1622.83C620.696 1623.01 620.677 1623.03 620.675 1623.03C620.676 1623 620.741 1622.85 620.835 1622.66C621.007 1622.3 621.274 1621.79 621.535 1621.29C622.077 1620.28 622.69 1619.18 623.317 1618.07C624.572 1615.85 625.898 1613.58 627.235 1611.3C629.927 1606.74 632.636 1602.24 635.468 1597.55C655.523 1564.18 675.925 1530.98 696.661 1497.99L696.643 1498.01C706.6 1482.22 715.652 1466.32 724.831 1450.63L738.97 1428.72L713.204 1434.63C604.752 1464.55 497.566 1498.61 391.952 1536.7C372.521 1543.7 353.143 1550.85 333.82 1558.12C353.505 1551.89 373.23 1545.8 392.994 1539.85C500.413 1507.49 608.966 1479.31 718.329 1455.36L706.702 1439.36C696.629 1454.64 686.778 1469.96 676.478 1484.49L676.46 1484.52C653.894 1516.49 631.641 1548.7 609.707 1581.13C606.735 1585.5 603.635 1590.07 600.611 1594.63C599.093 1596.92 597.577 1599.22 596.052 1601.61C595.285 1602.81 594.519 1604.02 593.721 1605.34C593.33 1605.99 592.904 1606.7 592.465 1607.49C592.216 1607.93 592.008 1608.31 591.692 1608.94C591.618 1609.08 591.544 1609.23 591.466 1609.39C591.369 1609.6 591.269 1609.81 591.163 1610.05C590.984 1610.48 590.644 1611.16 590.196 1612.78L592.283 1608.08C575.761 1632.17 559.062 1654.78 543.023 1682.2L519.816 1728.95L566.854 1707.57C600.586 1693.87 633.678 1679.57 666.843 1667.05L664.783 1667.78C684.313 1661.73 698.701 1655.42 714.217 1649.71L714.265 1649.69C744.302 1638.57 774.508 1627.92 804.863 1617.76L804.783 1617.79C878.099 1593.48 950.628 1568.45 1023.63 1547.78C1043.19 1542.24 1062.78 1537.02 1082.41 1532.19Z" fill="#FDCD2A"/>
<path d="M1026.19 1487.74C1002.49 1496.43 978.764 1505.07 955.041 1512.95C910.324 1528.05 864.208 1538.44 818.204 1552.22L818.152 1552.24C786.993 1561.47 756.008 1571.37 725.233 1581.95L725.28 1581.93C709.095 1587.53 691.888 1594.26 679.496 1597.58L677.149 1598.4C642.356 1610.86 608.777 1624.92 575.599 1638.13L612.482 1677.41C625.284 1656.15 643.121 1631.28 659.371 1607.52L663.378 1598.49C662.623 1601.24 662.215 1601.95 662.049 1602.4C661.947 1602.65 661.867 1602.83 661.804 1602.96C661.754 1603.08 661.716 1603.16 661.686 1603.23C661.564 1603.49 661.585 1603.46 661.629 1603.4C661.72 1603.25 661.956 1602.86 662.199 1602.47C662.707 1601.64 663.333 1600.65 663.979 1599.63C665.274 1597.6 666.677 1595.45 668.093 1593.29C670.958 1588.92 673.798 1584.69 676.895 1580.04L676.884 1580.06C706.977 1534.48 733.343 1490.53 767.156 1455.24C771.477 1450.68 775.904 1446.25 780.445 1441.95L872.303 1355.46L749.745 1385.66C610.361 1421.04 474.714 1467.05 342.945 1523.95L371.512 1548.65C383.861 1472.63 396.492 1396.08 402.923 1318.72C405.007 1293.52 406.391 1268.28 407.063 1243.07C401.997 1267.78 396.464 1292.32 390.481 1316.7C372.113 1391.41 349.782 1464.93 329.519 1539.48L322.628 1579.33L358.087 1564.18C492.758 1522.03 629.336 1483.91 765.659 1450.01L734.96 1393.72C729.485 1398.86 724.171 1404.16 719.027 1409.58C678.625 1451.94 650.745 1501.4 623.495 1546L623.484 1546.01C620.781 1550.42 617.812 1555.25 614.961 1560.01C613.522 1562.41 612.083 1564.84 610.598 1567.41C609.849 1568.71 609.097 1570.02 608.265 1571.53C607.856 1572.27 607.399 1573.11 606.88 1574.11C606.58 1574.69 606.327 1575.18 605.888 1576.1C605.785 1576.32 605.68 1576.54 605.565 1576.79C605.421 1577.11 605.269 1577.45 605.101 1577.84C604.821 1578.55 604.253 1579.68 603.434 1582.67L607.441 1573.65C592.103 1598.57 576.901 1621.66 561.63 1651.25L525.903 1723.8L598.513 1690.53C631.525 1674.79 663.491 1658.39 695.575 1643.5L693.228 1644.32C712.829 1636.97 726.419 1629.58 741.518 1622.64L741.564 1622.62C770.67 1609.15 799.953 1595.97 829.406 1583.06L829.354 1583.08C872.643 1563.95 917.326 1546.93 959.949 1524.56C982.39 1512.9 1004.36 1500.44 1026.19 1487.74Z" fill="#FDCD2A"/>
<path d="M1110.79 1456.79C991.819 1479.41 761.266 1565.36 660.86 1605.51L574.926 1664.51C538.696 1696.76 521.757 1724.19 516.93 1732.01L516.82 1732.19C516.82 1732.19 946.27 1575.68 1138.4 1515.12L1251.05 1448.34C1253.87 1441.73 1229.76 1434.18 1110.79 1456.79Z" fill="#FDCD2A"/>
<path d="M1784.24 1393.12C1885.58 1390.81 1391.08 1435.87 1082.08 1532.26L1063.82 1468.59C1206.3 1431.64 1442.73 1400.92 1784.24 1393.12Z" fill="url(#paint5_linear_44_1810)"/>
<path d="M216.685 639.976C600.431 474.427 1102.65 434.228 1095.48 434.799C556.493 477.678 181.406 620.979 216.685 639.976Z" fill="white"/>
<path d="M2036.13 1399.33C1624.16 1370.56 1143.31 1449.85 1150.31 1448.18C1673.01 1322.93 1952.54 1383.58 2036.13 1399.33Z" fill="white"/>
</g>
<path d="M379.5 1511C749.703 1386.82 880.494 1352.8 873.502 1354.5C585.504 1424.5 379.5 1492.32 379.5 1511Z" fill="white"/>
<path d="M195.996 1289.96C358.043 1250.31 414.92 1240.55 411.884 1241.02C286.829 1260.4 196.704 1281.91 195.996 1289.96Z" fill="white"/>
</g>
<path d="M1988 1113C2165.73 1131.45 2226.08 1142.63 2222.88 1141.97C2091.21 1115.05 1992.63 1104.17 1988 1113Z" fill="white"/>
</g>
<defs>
<filter id="filter0_d_44_1810" x="97.3" y="176" width="2281.92" height="1926.7" filterUnits="userSpaceOnUse" color-interpolation-filters="sRGB">
<feFlood flood-opacity="0" result="BackgroundImageFix"/>
<feColorMatrix in="SourceAlpha" type="matrix" values="0 0 0 0 0 0 0 0 0 0 0 0 0 0 0 0 0 0 127 0" result="hardAlpha"/>
<feOffset dy="120"/>
<feGaussianBlur stdDeviation="42.35"/>
<feComposite in2="hardAlpha" operator="out"/>
<feColorMatrix type="matrix" values="0 0 0 0 0 0 0 0 0 0 0 0 0 0 0 0 0 0 0.11 0"/>
<feBlend mode="normal" in2="BackgroundImageFix" result="effect1_dropShadow_44_1810"/>
<feBlend mode="normal" in="SourceGraphic" in2="effect1_dropShadow_44_1810" result="shape"/>
</filter>
<filter id="filter1_d_44_1810" x="371.2" y="354.2" width="1846.6" height="671.8" filterUnits="userSpaceOnUse" color-interpolation-filters="sRGB">
<feFlood flood-opacity="0" result="BackgroundImageFix"/>
<feColorMatrix in="SourceAlpha" type="matrix" values="0 0 0 0 0 0 0 0 0 0 0 0 0 0 0 0 0 0 127 0" result="hardAlpha"/>
<feOffset dy="-84"/>
<feGaussianBlur stdDeviation="20.4"/>
<feComposite in2="hardAlpha" operator="out"/>
<feColorMatrix type="matrix" values="0 0 0 0 0 0 0 0 0 0 0 0 0 0 0 0 0 0 0.13 0"/>
<feBlend mode="normal" in2="BackgroundImageFix" result="effect1_dropShadow_44_1810"/>
<feBlend mode="normal" in="SourceGraphic" in2="effect1_dropShadow_44_1810" result="shape"/>
</filter>
<filter id="filter2_d_44_1810" x="610.278" y="1099.89" width="1349.64" height="640.392" filterUnits="userSpaceOnUse" color-interpolation-filters="sRGB">
<feFlood flood-opacity="0" result="BackgroundImageFix"/>
<feColorMatrix in="SourceAlpha" type="matrix" values="0 0 0 0 0 0 0 0 0 0 0 0 0 0 0 0 0 0 127 0" result="hardAlpha"/>
<feOffset dy="65"/>
<feGaussianBlur stdDeviation="20.4"/>
<feComposite in2="hardAlpha" operator="out"/>
<feColorMatrix type="matrix" values="0 0 0 0 0 0 0 0 0 0 0 0 0 0 0 0 0 0 0.4 0"/>
<feBlend mode="normal" in2="BackgroundImageFix" result="effect1_dropShadow_44_1810"/>
<feBlend mode="normal" in="SourceGraphic" in2="effect1_dropShadow_44_1810" result="shape"/>
</filter>
<filter id="filter3_d_44_1810" x="106.904" y="418.696" width="2262.71" height="1458.38" filterUnits="userSpaceOnUse" color-interpolation-filters="sRGB">
<feFlood flood-opacity="0" result="BackgroundImageFix"/>
<feColorMatrix in="SourceAlpha" type="matrix" values="0 0 0 0 0 0 0 0 0 0 0 0 0 0 0 0 0 0 127 0" result="hardAlpha"/>
<feOffset dy="69.7919"/>
<feGaussianBlur stdDeviation="37.5481"/>
<feComposite in2="hardAlpha" operator="out"/>
<feColorMatrix type="matrix" values="0 0 0 0 0 0 0 0 0 0 0 0 0 0 0 0 0 0 0.25 0"/>
<feBlend mode="normal" in2="BackgroundImageFix" result="effect1_dropShadow_44_1810"/>
<feBlend mode="normal" in="SourceGraphic" in2="effect1_dropShadow_44_1810" result="shape"/>
</filter>
<filter id="filter4_d_44_1810" x="302.608" y="554.826" width="1041.83" height="606.456" filterUnits="userSpaceOnUse" color-interpolation-filters="sRGB">
<feFlood flood-opacity="0" result="BackgroundImageFix"/>
<feColorMatrix in="SourceAlpha" type="matrix" values="0 0 0 0 0 0 0 0 0 0 0 0 0 0 0 0 0 0 127 0" result="hardAlpha"/>
<feOffset dy="15.584"/>
<feGaussianBlur stdDeviation="7.61387"/>
<feComposite in2="hardAlpha" operator="out"/>
<feColorMatrix type="matrix" values="0 0 0 0 0 0 0 0 0 0 0 0 0 0 0 0 0 0 0.71 0"/>
<feBlend mode="normal" in2="BackgroundImageFix" result="effect1_dropShadow_44_1810"/>
<feBlend mode="normal" in="SourceGraphic" in2="effect1_dropShadow_44_1810" result="shape"/>
</filter>
<filter id="filter5_d_44_1810" x="1674.91" y="561.275" width="459.346" height="489.904" filterUnits="userSpaceOnUse" color-interpolation-filters="sRGB">
<feFlood flood-opacity="0" result="BackgroundImageFix"/>
<feColorMatrix in="SourceAlpha" type="matrix" values="0 0 0 0 0 0 0 0 0 0 0 0 0 0 0 0 0 0 127 0" result="hardAlpha"/>
<feOffset dy="15.584"/>
<feGaussianBlur stdDeviation="7.61387"/>
<feComposite in2="hardAlpha" operator="out"/>
<feColorMatrix type="matrix" values="0 0 0 0 0 0 0 0 0 0 0 0 0 0 0 0 0 0 0.71 0"/>
<feBlend mode="normal" in2="BackgroundImageFix" result="effect1_dropShadow_44_1810"/>
<feBlend mode="normal" in="SourceGraphic" in2="effect1_dropShadow_44_1810" result="shape"/>
</filter>
<filter id="filter6_d_44_1810" x="1306.18" y="549.125" width="397.963" height="430.743" filterUnits="userSpaceOnUse" color-interpolation-filters="sRGB">
<feFlood flood-opacity="0" result="BackgroundImageFix"/>
<feColorMatrix in="SourceAlpha" type="matrix" values="0 0 0 0 0 0 0 0 0 0 0 0 0 0 0 0 0 0 127 0" result="hardAlpha"/>
<feOffset dy="15.584"/>
<feGaussianBlur stdDeviation="7.61387"/>
<feComposite in2="hardAlpha" operator="out"/>
<feColorMatrix type="matrix" values="0 0 0 0 0 0 0 0 0 0 0 0 0 0 0 0 0 0 0.71 0"/>
<feBlend mode="normal" in2="BackgroundImageFix" result="effect1_dropShadow_44_1810"/>
<feBlend mode="normal" in="SourceGraphic" in2="effect1_dropShadow_44_1810" result="shape"/>
</filter>
<linearGradient id="paint0_linear_44_1810" x1="584.384" y1="1816" x2="981.035" y2="119.744" gradientUnits="userSpaceOnUse">
<stop stop-color="#2E1E4D"/>
<stop offset="0.363015" stop-color="#6134B4"/>
<stop offset="1" stop-color="#C7B0F7"/>
</linearGradient>
<linearGradient id="paint1_linear_44_1810" x1="389.267" y1="1541.22" x2="1980.61" y2="1149.84" gradientUnits="userSpaceOnUse">
<stop stop-color="#FDCD2A"/>
<stop offset="1" stop-color="#AAD8F1"/>
</linearGradient>
<linearGradient id="paint2_linear_44_1810" x1="285.939" y1="658.497" x2="1912.01" y2="1339.07" gradientUnits="userSpaceOnUse">
<stop stop-color="#A4D9FF"/>
<stop offset="1" stop-color="#FDCD2A"/>
</linearGradient>
<linearGradient id="paint3_linear_44_1810" x1="343.834" y1="577.905" x2="1863.94" y2="1359.11" gradientUnits="userSpaceOnUse">
<stop stop-color="#090D5C"/>
<stop offset="0.649038" stop-color="#0C0E3A"/>
<stop offset="1" stop-color="#040625"/>
</linearGradient>
<linearGradient id="paint4_linear_44_1810" x1="879.266" y1="1368.5" x2="1662.7" y2="1368.5" gradientUnits="userSpaceOnUse">
<stop stop-color="#D8B197"/>
<stop offset="1" stop-color="#F3D9C8"/>
</linearGradient>
<linearGradient id="paint5_linear_44_1810" x1="1063.82" y1="1462.65" x2="1797.69" y2="1462.65" gradientUnits="userSpaceOnUse">
<stop stop-color="#FDCD2A"/>
<stop offset="1" stop-color="#F2B100"/>
</linearGradient>
<clipPath id="clip0_44_1810">
<rect width="2416" height="2074" fill="white"/>
</clipPath>
</defs>
</svg>
