<svg width="5129" height="3137" viewBox="0 0 5129 3137" fill="none" xmlns="http://www.w3.org/2000/svg">
<path d="M1260.42 353.305C2000.42 205.305 2973.5 153.805 4003.5 275.808C4267.7 326.155 4578.57 376.661 4834.5 459.308C4761.4 900.832 4711 1378.8 4673 1817.8C4467 1790.8 4330.5 1771.8 4151 1754.3C4201.5 1918.8 4260 2137.81 4310 2335.31C3741.5 2259.81 2799.9 2418.32 2198.05 2587.52C1985.86 2645.86 1776.03 2712.48 1569.05 2787.28C1500.98 2812.14 1433.31 2838.05 1366.06 2865.06C1342.61 2874.41 1281.93 2900.66 1260.42 2906.98C1186.77 2937.07 1110.65 2972.37 1037.39 3004.41C1056.42 2967.42 1117.49 2875.58 1141.49 2838.78C1143.04 2832.9 1174.71 2783.91 1179.18 2776.9C1226.34 2702.99 1274.23 2629.55 1322.87 2556.59C1344.2 2524.77 1368.63 2484.6 1388.46 2452.7C1098.82 2524.33 812.585 2609.12 530.646 2706.77C579.5 2458.6 610.5 2260.31 636 2038.81C564 2050.31 300.362 2113.87 145 2142.81C145 1705.81 199.5 1252 199.5 694.5L304 586.5C734 438 782.259 448.938 1260.42 353.305Z" fill="url(#paint0_linear_44_1754)"/>
<path d="M1315.42 289.652C2055.42 141.653 3028.5 90.1524 4058.5 212.155C4322.7 262.502 4633.57 313.009 4889.5 395.655C4816.4 837.18 4766 1315.15 4728 1754.15C4522 1727.15 4385.5 1708.15 4206 1690.65C4256.5 1855.15 4315 2074.15 4365 2271.65C3796.5 2196.15 2854.9 2354.66 2253.05 2523.87C2040.86 2582.21 1831.03 2648.83 1624.05 2723.63C1555.98 2748.48 1488.31 2774.4 1421.06 2801.4C1397.61 2810.76 1336.93 2837.01 1315.42 2843.33C1241.77 2873.42 1165.65 2908.72 1092.39 2940.76C1111.42 2903.76 1172.49 2811.93 1196.49 2775.13C1198.04 2769.25 1229.71 2720.26 1234.18 2713.24C1281.34 2639.34 1329.23 2565.9 1377.87 2492.94C1399.2 2461.12 1423.63 2420.95 1443.46 2389.05C1153.82 2460.68 867.585 2545.47 585.646 2643.12C634.5 2394.95 665.5 2196.66 691 1975.16C619 1986.66 355.362 2050.21 200 2079.16C200 1642.16 215.5 1261.65 215.5 704.155L309.5 589.655C739.5 441.155 837.259 385.285 1315.42 289.652Z" fill="#FFC511"/>
<path d="M1307.42 290.305C2047.42 142.305 3020.5 90.8047 4050.5 212.808C4314.7 263.155 4625.57 313.661 4881.5 396.308C4808.4 837.832 4758 1315.8 4720 1754.8C4514 1727.8 4377.5 1708.8 4198 1691.3C4248.5 1855.8 4307 2074.81 4357 2272.31C3788.5 2196.81 2846.9 2355.32 2245.05 2524.52C2032.86 2582.86 1823.03 2649.48 1616.05 2724.28C1547.98 2749.14 1480.31 2775.05 1413.06 2802.06C1389.61 2811.41 1328.93 2837.66 1307.42 2843.98C1233.77 2874.07 1157.65 2909.37 1084.39 2941.41C1103.42 2904.42 1164.49 2812.58 1188.49 2775.78C1190.04 2769.9 1221.71 2720.91 1226.18 2713.9C1273.34 2639.99 1321.23 2566.55 1369.87 2493.59C1391.2 2461.77 1415.63 2421.6 1435.46 2389.7C1145.82 2461.33 859.585 2546.12 577.646 2643.77C626.5 2395.6 657.5 2197.31 683 1975.81C611 1987.31 347.362 2050.87 192 2079.81C192 1642.81 207.5 1262.31 207.5 704.808L301.5 590.308C731.5 441.808 829.259 385.938 1307.42 290.305Z" fill="url(#paint1_linear_44_1754)"/>
<path d="M2221.03 265.676C3087.03 197.898 3905.71 231.743 4745.01 450.347L4750.08 451.668L4749.45 456.874C4704.95 824.439 4649.97 1261.29 4620.98 1621.63L4620.47 1628L4614.15 1627.09C4417.06 1598.94 4265.31 1575.74 4065.06 1575.16C4082.42 1648.76 4109.55 1744.91 4134.22 1842.72C4159.65 1943.52 4182.4 2045.84 4188.48 2125.2L4189.01 2132.16L4182.05 2131.64C3860.1 2107.61 3445.28 2145.59 3128.08 2196.26L3128.07 2196.26L3128.06 2196.26C2839.49 2241.34 2553.78 2303.23 2272.42 2381.63L2272.42 2381.63C2008.63 2457.93 1603.18 2571.48 1358.18 2693.87L1338.89 2703.51L1350.43 2685.29C1411.92 2588.27 1506.74 2496.08 1603.82 2409.09C1696.01 2326.49 1790.05 2248.72 1860.86 2175.33C1481.35 2226.49 1166.06 2311.59 801.234 2421.9L793.028 2424.38L793.508 2415.82C804.361 2221.95 822.35 2020.59 846.027 1829.58C704.189 1856.38 471.701 1904.11 339.341 1934.5L331.998 1936.19V1928.66C331.998 1539.98 340.237 1159.74 323.748 790.735L323.676 789.111L324.433 787.673C338.43 761.079 369.858 720.608 387.967 696.173L388.852 694.979L390.192 694.336C414.341 682.751 467.036 664.7 493.057 654.79L493.063 654.787L493.07 654.785C594.26 616.527 696.249 580.425 798.972 546.5C1269.64 382.489 1724.81 308.485 2220.98 265.68L2221.01 265.678L2221.03 265.676Z" fill="url(#paint2_linear_44_1754)" stroke="white" stroke-width="12"/>
<g filter="url(#filter0_d_44_1754)">
<path d="M1612.11 1221.85C1644.73 1221.69 1689.07 1214.38 1721.77 1209.65L1873.42 1187.51C1910.7 1182.07 1947.53 1176.91 1984.84 1173.31C2014.41 1170.46 2016.22 1125.78 2018.61 1103.72C2020.89 1082.69 1991.34 1085.19 1977.31 1083.4C1917.19 1083.46 1854.15 1080.84 1794.43 1079.87C1708 1078.48 1636.02 1066.19 1634.08 963.673C1632.89 926.441 1636.18 887.248 1642.15 850.486C1651.62 792.12 1653.54 722.807 1674.65 667.427C1685.47 638.911 1702.23 613.025 1723.82 591.487C1819.89 495.757 2047.97 480.599 2181.58 468.471C2355.54 452.681 2546.91 436.856 2721.55 437.858C2693.53 488.088 2687.63 576.187 2680.64 634.042L2653.62 869.68C2643.57 957.485 2634.05 1045.35 2625.03 1133.27C2620.14 1180.47 2613.32 1233.6 2613.79 1281.01C2613.96 1299.14 2627.01 1319.73 2636.28 1334.63C2535.89 1336.89 2411.99 1350.52 2310.63 1359.82C2322.06 1341.93 2340.95 1308.63 2344.52 1288.86C2357.15 1218.8 2362.28 1144.3 2371.32 1073.51C2395.28 891.251 2416.51 708.652 2434.99 525.763C2435.7 520.669 2435.42 517.286 2435.23 512.228C2425.03 501.221 2407.57 499.618 2392.38 496.197C2381.45 492.959 2375.71 490.615 2365.36 486.161C2348.93 538.195 2297.3 653.634 2273.82 710.197C2221.69 709.406 1949.07 723.673 1926.98 747.19C1923.77 750.614 1922.06 754.397 1920.81 758.896C1916.52 776.583 1908.89 812.998 1912.97 830.883C1913.81 838.527 1929.61 839.713 1936.41 840.228C2009.27 845.181 2085.65 848.374 2157.93 855.016C2323.28 873.001 2313.53 960.67 2300.81 1090.43C2277.98 1323.39 2241.91 1361.7 2015.11 1395.36C1959.72 1403.37 1904.37 1411.68 1849.07 1420.28C1705.72 1443.59 1562.89 1470.07 1420.7 1499.68C1329.18 1518.9 1253.17 1533.2 1164.09 1561.24C1210.72 1484.75 1208.17 1488.16 1219.58 1400.09L1239.07 1240.62L1275.83 954.902C1282.2 906.807 1308.32 716.171 1301.63 672.672C1295.79 663.536 1283.21 652.832 1272.83 649.561C1229.31 783.345 1173.32 923.34 1126.95 1057.12C1116.3 1087.86 1076.72 1203.88 1064.21 1228.53C1029.86 1341.53 980.945 1455.17 943.059 1567.49C937.627 1583.59 930.783 1602.62 924.279 1618.13L741.093 1669.64C684.933 1685.26 605.137 1702.27 558.262 1730.65C564.875 1668.56 553.829 1607.67 550.904 1545.49C550.247 1531.55 547.01 1501.77 547.837 1489.65C541.75 1456.42 537.523 1376 534.678 1340.01L511.384 1022.12C508.086 974.967 505.982 919.963 497.697 873.266C496.667 867.462 490.561 861.88 486.161 857.899C473.59 846.542 461.573 832.643 450.109 820.021C561.117 785.132 691.404 749.425 804.371 721.36C797.575 739.741 791.58 758.659 791.074 778.521C787.564 915.392 793.091 1052.51 792.382 1189.48C792.223 1220.12 792.279 1261.07 796.578 1290.88C851.822 1117.15 916.028 936.805 966.34 762.281C970.787 744.42 969.025 745.818 956.811 734.271C946.477 728.511 915.382 703.352 904.506 694.878C1141.94 633.747 1382 583.294 1623.96 543.671C1614.62 559.081 1599.97 584.979 1597.3 601.909C1588.82 655.805 1582.37 712.134 1575.61 766.214L1536.34 1087.06L1510.92 1300.82C1506.61 1336.78 1497.9 1396.75 1498 1431.51C1531.72 1442.54 1550.02 1445.86 1584.83 1449.34C1570.76 1420.54 1575.14 1407.01 1581.1 1376.64C1591.19 1325.18 1600.25 1272.88 1612.11 1221.85Z" fill="white"/>
</g>
<path d="M2330.96 502.476C2344.78 494.498 2350.36 491.085 2365.35 486.16C2348.93 538.194 2297.29 653.633 2273.82 710.196C2221.69 709.405 1949.07 723.672 1926.98 747.189C1923.76 750.613 1922.05 754.396 1920.81 758.895C1919.96 755.078 1919.08 751.117 1918.96 747.197C1918.66 738.125 1921.89 729.003 1928.16 722.416C1951.29 698.114 2201.18 680.657 2248.38 678.898C2266.71 635.408 2308.23 541.891 2330.96 502.476Z" fill="#E1E9F4"/>
<path d="M2210.51 922.867C2220.62 921.595 2234.93 921.152 2245.47 920.551C2256.47 930.027 2265.66 938.929 2271.75 952.294C2293.44 999.893 2262.42 1187.34 2243.54 1238.56C2225.19 1288.34 2191.44 1324.64 2143.15 1346.64C2122.73 1355.95 2100.93 1362.37 2079 1367.04C2004.34 1382.93 1926.81 1391.11 1851.38 1403.28L1671.17 1432.27C1652.17 1435.14 1631.65 1445.12 1612.76 1438.1C1594.03 1409.36 1625.47 1293.61 1633.87 1253.19C1660.37 1251.32 1704.83 1242.94 1732.32 1238.62C1794.26 1229.21 1856.14 1219.45 1917.96 1209.33C1945.47 1204.86 2030.75 1198.15 2040.71 1171.36C2098.55 1015.76 2020.02 1062.98 1913.59 1051.85C1825.5 1042.64 1700.72 1076.48 1665.15 974.656C1719.31 965.497 1788.21 960.016 1844.13 954.382C1966.09 941.977 2088.23 931.471 2210.51 922.867Z" fill="#E1E9F4"/>
<path d="M1042.35 1133.55C1048.03 1132.07 1047.71 1132.29 1053.53 1133.4C1055.59 1140.63 1043.61 1168.67 1040.37 1177.85C1019.19 1237.19 997.342 1296.29 974.846 1355.14C951.825 1417.1 911.181 1542.95 884.959 1597.42C847.577 1607.2 641.602 1665.46 620.568 1663.32C611.186 1649.46 601.955 1529.56 599.6 1505.13C589.548 1430.39 581.922 1320.68 577.094 1244.29C634.325 1230.04 707.489 1209.69 764.319 1199.46C764.541 1250.99 766.25 1311.65 769.601 1362.91L801.283 1343.27C823.478 1286.65 848.676 1229.04 872.499 1173.02C921.392 1159.79 993.626 1142.84 1042.35 1133.55Z" fill="#E1E9F4"/>
<path d="M1495.81 1002.91C1502.89 1001.43 1503.17 1001.77 1510.08 1002.56C1511.21 1004.5 1512.35 1006.45 1513.48 1008.39C1498.43 1150.1 1477.77 1291.36 1461.47 1432.83C1459.39 1450.96 1468.78 1458.33 1479.09 1469.4C1413.71 1486.07 1332.08 1495.55 1262.32 1511.88L1229.31 1518.63C1246.76 1471.33 1253.42 1380.89 1259.95 1327.99C1272.03 1230.22 1281.79 1134.24 1296.82 1036.57C1352.46 1023.73 1437.84 1012.27 1495.81 1002.91Z" fill="#E1E9F4"/>
<path d="M2556.62 902.911C2571.9 901.085 2604.24 900.795 2620.77 900.172L2593.47 1138.08C2588.21 1182.85 2570.12 1279.22 2587.4 1318.3L2428.03 1330.8L2359.96 1335.95C2381.05 1292.08 2390.39 1169.48 2396.42 1115.68C2403.89 1046.88 2411.78 978.117 2420.08 909.406L2556.62 902.911Z" fill="#E1E9F4"/>
<path d="M1971.54 515.388C1976.01 514.862 1976.34 515.324 1980.9 515.987C1965.39 527.111 1836.35 547.059 1808.92 569.006C1809.84 568.268 1724.87 614.893 1728.43 613.738C1727.62 616.917 1727.37 616.121 1724.54 619.13L1724.58 614.726C1777.65 536.383 1887.38 532.027 1971.54 515.388Z" fill="#E1E9F4"/>
<g filter="url(#filter1_d_44_1754)">
<path d="M3618.78 452.301C3692 458.216 3765.14 465.156 3838.14 473.12C3875.93 477.14 3914.95 480.92 3952.52 486.463C3964.52 488.228 3964.74 491.073 3970.58 499.446C3974.7 515.617 4004.15 575.565 4012.91 594.934C4051.07 679.017 4091.29 762.627 4131.53 845.713C4143.61 870.639 4151.4 911.028 4161.73 938.495L4177.87 685.281C4180.12 645.79 4183.35 605.838 4182.26 566.323C4182.01 557.974 4177.95 553.078 4173.78 546.436C4165.04 533.5 4160.17 525.182 4152.85 511.35C4252.01 528.191 4351.86 541.592 4450.94 559.03C4464.3 561.379 4477.77 563.172 4491.02 566.159L4495.28 569.407C4496.64 585.099 4485.79 702.849 4483.98 726.772L4453.28 1128.35C4448.41 1188.6 4443.98 1248.88 4440.03 1309.19C4438.92 1325.69 4435.88 1386.43 4432.68 1400.73C4431.88 1435.22 4434.1 1450.08 4439.73 1483.38C4361.41 1455.48 4190.81 1423.72 4106.9 1409.95C4048.59 1305.66 4002.45 1185.4 3942.89 1080.72C3910.69 1024.08 3890.93 960.209 3861.68 901.717C3859.65 920.899 3859.35 941.276 3858.62 960.598C3853.84 1086.8 3849.41 1213.16 3848.63 1339.45C3848.57 1348.97 3852.94 1363.47 3855.7 1372.71C3757.99 1357.16 3632.39 1348.72 3532.14 1340.4C3548.48 1315.75 3561.86 1291.76 3565.76 1262.05C3573.14 1205.87 3577.53 1149.44 3582.63 1093.02L3606.25 834.929C3615.49 731.151 3628.02 625.58 3633.14 521.705C3634.25 498.784 3625.96 473.958 3618.78 452.301Z" fill="white"/>
</g>
<path d="M3970.59 499.445C3974.71 515.616 4004.15 575.564 4012.92 594.933C4051.08 679.016 4091.29 762.626 4131.54 845.712C4143.61 870.638 4151.41 911.027 4161.73 938.494L4177.87 685.28C4180.13 645.79 4183.36 605.837 4182.27 566.322C4182.02 557.974 4177.96 553.077 4173.78 546.435L4213.19 554.572C4209.77 680.92 4191.09 836.083 4182.49 964.907C4256.77 972.812 4330.97 981.565 4405.06 991.157C4394.67 1138.03 4379.79 1284.17 4370.41 1431.58C4298.05 1412.32 4209.88 1403.93 4135.85 1387.84C4130.42 1379.82 4126.14 1371.09 4121.63 1362.52C4047.88 1221.89 3979.75 1078.39 3907.11 937.197C3983.92 940.154 4070.59 955.305 4149.24 960.586C4103.98 857.343 4055.08 754.617 4009.41 651.641C3995.36 619.931 3954.34 535.063 3946.55 505.764C3951.89 500.951 3962.91 500.548 3970.59 499.445Z" fill="#E1E9F4"/>
<path d="M3631.36 911.652C3699.43 915.87 3771.76 922.796 3839.75 929.131C3836.36 971.247 3805.94 1326.65 3797.26 1335.7C3737.11 1334.02 3639.93 1330.51 3581.62 1325.02C3604.17 1289.02 3606.95 1190.47 3610.71 1145.71L3631.36 911.652Z" fill="#E1E9F4"/>
<g filter="url(#filter2_d_44_1754)">
<path d="M2810.72 505.773C2891.68 407.612 3062.95 425.84 3177.91 427.202C3276.85 428.376 3423.71 418.029 3491.51 501.141C3559.72 606.007 3516 751.959 3510.82 869.825C3509.57 897.621 3503.75 967.919 3497.83 993.874C3487.42 1119.12 3491.48 1290.78 3329.12 1315.75C3249.69 1327.96 3163.41 1321.09 3082.62 1322.64C3008.45 1324.07 2931.25 1322.77 2857.14 1319.6C2673.93 1305.66 2700.12 1150.12 2713.53 1021.24C2720.38 955.848 2727.56 890.489 2735.13 825.171C2737.88 792.568 2742.64 757.459 2746.2 724.748C2754.53 648.428 2760.62 568.067 2810.72 505.773Z" fill="white"/>
</g>
<path d="M3237.58 887.777C3311.42 890.984 3385.22 894.765 3458.98 899.118C3457.44 956.692 3448.07 1017.7 3443.14 1075.21C3438.19 1133.07 3430.76 1184.04 3401.9 1235.49C3353.44 1312.1 3249.16 1303.49 3168.56 1305.47C3073.22 1307.82 2975.42 1311.25 2880.18 1306.56C2705.35 1297.95 2730.76 1170.52 2747.51 1044.75C2754.5 994.556 2760.71 944.254 2766.1 893.863C2832.42 893.256 2901.58 890.508 2968.32 889.155C2977.2 888.816 2979.2 888.921 2987.91 890.667C3000.27 908.75 2960.7 1072.23 2984.52 1110.05C3007.9 1127.65 3182.76 1126.99 3193.61 1110.2C3223.11 1064.58 3231.15 942.497 3237.58 887.777Z" fill="#E1E9F4"/>
<path d="M3090.66 648.701C3118.22 647.963 3180.86 639.643 3202.6 655.574C3206.86 658.708 3206.8 662.274 3207.58 667.296C3214.2 710.093 3188.04 1059.27 3170.04 1081.82C3162.63 1091.12 3153.7 1091.42 3142.65 1092.97C3110.98 1093.77 3073.69 1098.01 3042.43 1092.28C3036.39 1091.17 3027.6 1088.83 3024.37 1083.22C3008.62 1055.73 3051.56 754.845 3061.27 704.092C3066.03 679.339 3068.65 663.641 3090.66 648.701Z" fill="#0B0E43"/>
<path d="M2419.31 1501.39C2550.72 1486.59 2551.75 1605.53 2518.77 1698.96C2502.85 1743.99 2463.7 1760.97 2422.37 1777.26C2463.33 1804.2 2499.68 1876.33 2517.85 1922C2471.02 1927.11 2424.19 1932.54 2377.42 1938.31C2352.27 1893 2325.75 1845.06 2295.41 1803.22C2279.55 1803.88 2261.24 1805.87 2245.23 1807.21C2241.2 1807.89 2237.66 1809.31 2233.77 1810.62C2224.22 1826.97 2218 1930.97 2215.76 1957.65C2167.68 1964.34 2119.64 1971.28 2071.64 1978.48C2073.01 1944.75 2084.08 1875.19 2088.44 1838.45L2124.24 1531.51C2214.26 1519.31 2328.02 1509.26 2419.31 1501.39Z" fill="#FDCD2A"/>
<path d="M2290.84 1763.14C2301.79 1762.8 2332.09 1761.54 2340.71 1767.56C2331.69 1796.39 2406.57 1806.94 2425.3 1820.18C2451.12 1838.42 2465.37 1873.75 2479.7 1901.13L2395.14 1909.6C2367.52 1869.83 2341.74 1812.4 2303.32 1784.47C2289.67 1784.05 2275.13 1784.19 2261.39 1784.06C2245 1784.73 2223.78 1787.3 2207.09 1788.83C2206.64 1831.97 2198.1 1892.91 2193.1 1936.74C2166.1 1942.37 2134.74 1946.95 2107.27 1951.62C2109.76 1898.6 2123.5 1829.03 2128.47 1773.07C2174.86 1772.78 2240.45 1765.26 2290.84 1763.14Z" fill="#FDB02A"/>
<path d="M2367.45 1607.17C2375.73 1606.21 2389.75 1603.8 2396.17 1608.63C2415.38 1624.35 2406.15 1663.01 2392.86 1679.74C2376.97 1699.72 2341.32 1700.44 2317.8 1703.4C2303.62 1705.19 2288.04 1706.45 2273.55 1707.87L2238.73 1711C2242.02 1678.9 2244.44 1650.74 2245.9 1618.55C2286 1615.35 2327.3 1610.97 2367.45 1607.17Z" fill="#0B0E47"/>
<path d="M1521.34 1618.12C1526.56 1617.21 1530.25 1617.27 1535.49 1617.07C1541.91 1624.76 1533.21 1706.19 1532.18 1724.47C1491.53 1731.44 1289.09 1764.11 1263.81 1779.06C1251.66 1793.5 1254.18 1818.89 1254 1838.16C1286.79 1834.3 1319.71 1830.21 1352.22 1824.49C1387.92 1818.2 1428.07 1806.36 1464.25 1807.8C1476.95 1808.31 1488.2 1812.28 1499.01 1818.86C1516.53 1829.53 1527.54 1846.51 1532.34 1866.26C1544.04 1914.34 1531.1 1982.2 1504.95 2023.37C1492.61 2042.81 1475.35 2062.06 1455.62 2074.22C1392.29 2113.25 1197.89 2145.43 1117.5 2162.89C1110.32 2164.55 1102.07 2167.25 1096.46 2162.52C1095.01 2136.46 1101.56 2071.82 1104.22 2044.41C1144.14 2038.86 1370.94 1997.37 1385.53 1981.98C1398.42 1968.38 1394.71 1937.89 1393.93 1920.98C1327.37 1930.46 1126.44 1997.34 1117.56 1890.74C1101.23 1694.72 1208.58 1676.03 1363.91 1646.74C1416.26 1636.49 1468.74 1626.95 1521.34 1618.12Z" fill="#FDCD2A"/>
<path d="M1462.16 1849.83C1488.85 1846.63 1503.44 1847.34 1508.13 1880C1523.7 1988.5 1466.84 2065.17 1360.53 2088.73C1282.88 2105.94 1204.41 2123.04 1126.48 2139.83C1127.04 2116.21 1127.93 2092.59 1129.15 2069C1164.61 2065.6 1241.71 2046.26 1278.4 2037.96C1313.36 2030.49 1384.56 2021.38 1406.3 1993.27C1417.71 1978.51 1430.92 1907.63 1403.37 1905.13C1330.79 1898.52 1246.74 1944.87 1174.49 1923.93C1160.95 1920 1144.79 1897.5 1154.42 1881.42C1170.43 1870.55 1229.04 1870.81 1252.04 1868.78L1462.16 1849.83Z" fill="#FDB02A"/>
<path d="M1937.93 1554.25C2085.41 1531.02 2054.03 1718.59 2008 1793.95C1961.8 1869.61 1823.48 1878.96 1739.37 1893.22C1738.64 1932.55 1734.38 1994.6 1729.92 2033.48C1718.04 2036.5 1704.4 2038.94 1692.24 2041.39L1593.47 2059.75C1594.82 2007.24 1601.4 1948.9 1605.64 1895.77C1613.24 1796.9 1621.39 1698.07 1630.12 1599.29C1729.34 1584.71 1839.1 1564.51 1937.93 1554.25Z" fill="#FDCD2A"/>
<path d="M1947.64 1799.25C1955.62 1798.04 1955.4 1797.91 1963.26 1799.29L1963.02 1803.58C1922.99 1846.64 1775.77 1865.53 1715.49 1874.48C1711.86 1919.96 1710.25 1970.69 1707.83 2016.67L1641.81 2028.07C1634.03 2029.62 1633.35 2030.11 1626.02 2027.88C1622.32 2016.17 1636.4 1855.11 1638.69 1832.45C1738.24 1825.18 1848.24 1810.52 1947.64 1799.25Z" fill="#FDB02A"/>
<path d="M1870.98 1665.49C1880.51 1663.56 1894.67 1661.65 1903.31 1666C1926.67 1688.47 1908.49 1751.78 1878.97 1760.11C1855.06 1766.85 1822.22 1769.34 1797.08 1772.33L1749.52 1780.17C1753.12 1755.32 1753.76 1708.5 1754.9 1681.94C1793.57 1676.26 1832.26 1670.78 1870.98 1665.49Z" fill="#0B0E47"/>
<path d="M2970.52 1470.95L2993.31 1471.23C3043.41 1544.26 3099.85 1624.86 3146.41 1699.69L3167.2 1472.72L3294.36 1475.37C3289.49 1512.29 3286.48 1558.49 3282.78 1596.46L3254.7 1888.27L3131.99 1887.89L3119.41 1871.65L2958.44 1635.32L2937.57 1892.45C2900.44 1896.64 2845.03 1897.86 2806.46 1899.71C2807.18 1880.94 2808.88 1860.23 2810.99 1841.57C2824.74 1719.55 2832.9 1596.3 2846.67 1474.37L2970.52 1470.95Z" fill="#FDCD2A"/>
<path d="M3043.57 1719.2C3110.98 1722.43 3174.91 1729.61 3241.95 1737.35C3241.48 1768.82 3234.55 1825.42 3231.38 1858.67L3228.73 1865.36C3216.74 1869.2 3167.11 1867.37 3152.09 1867.12C3115.66 1820.57 3078.06 1767.37 3043.57 1719.2Z" fill="#FDB02A"/>
<path d="M2849.29 1702.81C2875.23 1704.47 2901.22 1705.61 2927.19 1706.22C2925.77 1755.93 2919.62 1819.24 2915.03 1869.35C2888.81 1870.34 2862.62 1871.82 2836.46 1873.78C2838.05 1820.45 2844.84 1756.73 2849.29 1702.81Z" fill="#FDB02A"/>
<path d="M2932 2099C3130.23 2086.57 3460.5 2070.15 3460.5 2070.15C3371.25 2077.47 3071.52 2122.32 2982.54 2132.29C2691.52 2166.99 2430.07 2211.57 2148.88 2297.46C1988.27 2346.51 1862.53 2386.71 1711 2461.26C1730.44 2443.61 1752.03 2423.18 1772.05 2406.61C1794.23 2386.9 1873.06 2318.45 1895.05 2306.97C1937.64 2284.74 1988.42 2266.29 2035.5 2250.5C2345.11 2147.91 2562.6 2122.16 2932 2099Z" fill="#C46BF5"/>
<path d="M3470.5 2069.15C3280 2094 3159 2111.25 2982.54 2132.29C2691.52 2166.99 2430.07 2211.57 2148.88 2297.46C1988.27 2346.51 1862.53 2386.71 1711 2461.26C1730.44 2443.61 1752.03 2423.18 1772.05 2406.61C1886 2355 2044.23 2311.5 2151.93 2278.21C2345.18 2219.05 2477.5 2178.5 2734.5 2147C3013 2112.86 3233 2090.5 3470.5 2069.15Z" fill="url(#paint3_linear_44_1754)"/>
<path d="M3361.26 1478.92C3503.7 1485.75 3646.05 1494.91 3788.21 1506.39C3784.2 1540.38 3780.56 1575.24 3774.77 1608.91C3724.23 1605.56 3673.74 1601.65 3623.29 1597.19C3614.02 1649.82 3610.46 1707.72 3602.83 1761.65C3600.94 1796.85 3590.03 1865.95 3585.61 1904.62C3542.08 1903.47 3498.55 1901.22 3455.14 1897.88C3461.26 1800.98 3481.82 1688.07 3490.87 1588.29C3443.84 1585.2 3396.83 1585.19 3349.6 1580.51C3354.72 1547.37 3355.33 1512.65 3361.26 1478.92Z" fill="#FDCD2A"/>
<path d="M3497.43 1762.3C3521.76 1766.12 3551.28 1768.25 3576.19 1770.62C3572.35 1807.09 3567.01 1844.53 3562.25 1880.98C3546.36 1883.18 3502.39 1879.82 3484.99 1878.8C3486.13 1846.81 3493.4 1794.91 3497.43 1762.3Z" fill="#FDB02A"/>
<path d="M2704.76 1482.37C2720.77 1480.4 2743.36 1479.94 2759.9 1479.11C2754.39 1517.67 2751.41 1571.7 2747.71 1612.1L2720.18 1905.41C2690.79 1907.23 2661.76 1908.9 2632.43 1911.94L2583.87 1915.47C2592.91 1779.48 2611.61 1623.83 2625.36 1487.32L2704.76 1482.37Z" fill="#FDCD2A"/>
<path d="M2685.9 1707.39C2694.97 1706.16 2697.86 1706.49 2707.13 1707.07C2713.73 1715.71 2697.67 1859.22 2695.55 1882.59C2679.47 1884.37 2662.66 1885.44 2646.46 1886.71L2614.54 1889.54C2615.62 1835.7 2625.25 1765.29 2631.43 1711.39L2685.9 1707.39Z" fill="#FDB02A"/>
<path d="M4287 2278C4188.45 2259.93 4087.11 2249.11 3986.63 2242.75C3393.63 2212.29 2799.15 2292.44 2221.87 2439.54L2222.24 2439.44C2007.48 2494.96 1795.07 2560.06 1585.96 2634.54L1585.72 2634.62C1516.82 2659.42 1448.33 2685.43 1380.32 2712.65L1380.48 2712.59C1357.6 2721.81 1337.62 2730.36 1317.1 2738.65C1304.2 2743.89 1288.07 2750.2 1281.43 2752.21L1274.25 2754.72C1196.94 2786.42 1122.99 2821.06 1049.81 2853.47L1145.03 2954.87C1170.98 2907.14 1209.51 2849.46 1244.28 2795.12L1253.66 2773.99C1251.88 2780.43 1250.91 2782.12 1250.5 2783.18C1250.25 2783.75 1250.06 2784.18 1249.9 2784.51C1249.78 2784.78 1249.68 2784.98 1249.6 2785.14C1249.44 2785.46 1249.37 2785.6 1249.34 2785.64C1249.31 2785.69 1249.32 2785.66 1249.36 2785.58C1249.51 2785.28 1249.98 2784.4 1250.48 2783.5C1251.53 2781.63 1252.85 2779.36 1254.22 2777.05C1256.96 2772.41 1259.95 2767.48 1262.98 2762.55C1269.11 2752.57 1275.2 2742.87 1281.87 2732.26L1281.85 2732.29C1328.07 2658.36 1374.88 2584.78 1422.27 2511.55L1422.17 2511.7C1445.8 2475.33 1466.67 2439.64 1487.55 2404.88L1575.86 2265.87L1414.32 2304.14C1123.85 2380.72 837.606 2472.62 557.317 2579.21L618.602 2632.51C655.948 2409.14 684.36 2183.76 700.582 1958.1L705.062 1929.42L674.415 1933.06C607.383 1947.77 543.749 1965.89 478.989 1983.08C381.814 2009.15 284.741 2035.97 187 2059.5C286.627 2045.73 386.029 2028.06 485.127 2010.72C550.717 1999.4 617.49 1986.55 681.585 1977.95L655.418 1952.9C620.851 2175.41 577.011 2395.34 526.69 2614.42L512.848 2695.98L587.976 2667.73C871.463 2579.04 1157.88 2501.3 1446.6 2434.65L1373.37 2333.91C1351.01 2368.7 1329.43 2403.13 1307.56 2434.87L1307.46 2435.02C1257.6 2507.7 1208.61 2581 1160.52 2654.89L1160.5 2654.92C1154.14 2664.63 1147.18 2675.3 1140.48 2685.81C1137.09 2691.12 1133.7 2696.49 1130.2 2702.18C1128.44 2705.06 1126.66 2707.98 1124.7 2711.35C1123.73 2713.02 1122.66 2714.89 1121.43 2717.16C1120.72 2718.47 1120.12 2719.59 1119.09 2721.69C1118.85 2722.18 1118.6 2722.7 1118.33 2723.28C1117.99 2724 1117.63 2724.79 1117.24 2725.7C1116.58 2727.35 1115.24 2729.96 1113.32 2736.95L1122.7 2715.83C1086.52 2770.83 1050.85 2820.87 1013.75 2887.34L919.213 3072.3L1108.97 2988.74C1184.45 2956.13 1257.7 2922.36 1330.59 2892.62L1323.42 2895.14C1345.69 2888.15 1357.77 2882.79 1373.03 2876.75C1394.63 2868.02 1416.49 2858.68 1435.65 2850.91L1435.81 2850.85C1502.28 2824.07 1569.15 2798.24 1636.38 2773.33L1636.14 2773.41C1840.92 2698.31 2048.28 2630.15 2257.86 2568.99L2258.23 2568.88C2818 2407.68 3398.6 2293.03 3986.1 2271.06C4085.95 2268.47 4187.16 2269.79 4287 2278Z" fill="#9ED9FF"/>
<path d="M2167.25 2632.83C2154.08 2584.94 2140.92 2537.06 2127.75 2489.17C2082.43 2502.91 2037.53 2517.52 1992.98 2532.75C1826.74 2589.61 1665.69 2655.13 1505.07 2718.08L1504.89 2718.15C1436.94 2745.03 1369.42 2772.97 1302.39 2801.98L1302.5 2801.93C1267.09 2817.33 1230.23 2834.82 1202.25 2845.21L1197.62 2846.83C1121.9 2880.16 1049.02 2916.44 976.12 2950.69L1029.64 3007.69C1056.67 2955.07 1093.37 2898.13 1127.21 2842.88L1131.89 2832.33C1131.03 2835.4 1130.63 2836.01 1130.48 2836.39C1130.29 2836.79 1130.25 2836.85 1130.25 2836.84C1130.25 2836.78 1130.39 2836.45 1130.61 2836.01C1130.99 2835.2 1131.59 2834.05 1132.18 2832.95C1133.4 2830.66 1134.77 2828.19 1136.18 2825.7C1139 2820.72 1141.98 2815.61 1144.98 2810.51C1151.03 2800.25 1157.11 2790.15 1163.47 2779.63L1163.46 2779.65C1208.51 2704.66 1254.33 2630.11 1300.9 2556.01L1300.86 2556.07C1323.23 2520.61 1343.56 2484.88 1364.17 2449.66L1395.92 2400.46L1338.06 2413.73C1094.49 2480.91 853.756 2557.42 616.559 2642.95C572.918 2658.68 529.397 2674.73 486 2691.07C530.21 2677.07 574.511 2663.39 618.897 2650.02C860.151 2577.36 1103.95 2514.06 1349.57 2460.27L1323.45 2424.34C1300.83 2458.66 1278.71 2493.06 1255.57 2525.71L1255.53 2525.77C1204.85 2597.57 1154.87 2669.9 1105.61 2742.74L1105.6 2742.76C1098.94 2752.55 1091.98 2762.82 1085.19 2773.06C1081.77 2778.2 1078.37 2783.38 1074.95 2788.73C1073.22 2791.43 1071.5 2794.16 1069.71 2797.12C1068.83 2798.57 1067.88 2800.18 1066.89 2801.94C1066.33 2802.94 1065.86 2803.79 1065.15 2805.19C1064.99 2805.52 1064.82 2805.86 1064.65 2806.22C1064.43 2806.68 1064.2 2807.16 1063.97 2807.7C1063.56 2808.67 1062.8 2810.19 1061.79 2813.83L1066.48 2803.27C1029.37 2857.37 991.87 2908.15 955.849 2969.73L903.727 3074.74L1009.37 3026.72C1085.13 2995.95 1159.45 2963.83 1233.94 2935.72L1229.31 2937.34C1273.17 2923.76 1305.49 2909.58 1340.33 2896.78L1340.44 2896.73C1407.9 2871.74 1475.74 2847.84 1543.91 2825L1543.73 2825.07C1708.39 2770.48 1871.29 2714.26 2035.23 2667.85C2079.17 2655.41 2123.16 2643.67 2167.25 2632.83Z" fill="#FDCD2A"/>
<path d="M2041 2533C1987.77 2552.52 1934.48 2571.92 1881.2 2589.62C1780.77 2623.52 1677.2 2646.87 1573.88 2677.83L1573.76 2677.87C1503.78 2698.6 1434.2 2720.83 1365.08 2744.58L1365.18 2744.53C1328.83 2757.13 1290.19 2772.23 1262.36 2779.68L1257.09 2781.52C1178.94 2809.52 1103.53 2841.08 1029.01 2870.77L1111.85 2958.97C1140.6 2911.24 1180.66 2855.38 1217.16 2802L1226.16 2781.74C1224.46 2787.9 1223.55 2789.51 1223.17 2790.52C1222.94 2791.07 1222.76 2791.47 1222.62 2791.78C1222.51 2792.04 1222.43 2792.22 1222.36 2792.37C1222.22 2792.67 1222.17 2792.8 1222.16 2792.83C1222.15 2792.87 1222.17 2792.83 1222.23 2792.75C1222.43 2792.43 1222.96 2791.55 1223.51 2790.67C1224.65 2788.81 1226.06 2786.57 1227.51 2784.3C1230.42 2779.73 1233.57 2774.9 1236.75 2770.05C1243.18 2760.25 1249.56 2750.73 1256.51 2740.3L1256.49 2740.34C1324.08 2637.97 1383.29 2539.27 1459.23 2460.01C1468.94 2449.78 1478.88 2439.83 1489.08 2430.16L1695.38 2235.9L1420.13 2303.73C1107.09 2383.2 802.437 2486.54 506.496 2614.33L570.657 2669.8C598.39 2499.06 626.758 2327.14 641.202 2153.39C645.883 2096.8 648.99 2040.12 650.5 1983.5C639.121 2038.99 626.695 2094.11 613.259 2148.85C572.007 2316.65 521.852 2481.78 476.343 2649.2L460.868 2738.7L540.504 2704.67C842.963 2610.02 1149.7 2524.39 1455.87 2448.27L1386.92 2321.84C1374.63 2333.39 1362.69 2345.28 1351.14 2357.46C1260.4 2452.59 1197.78 2563.67 1136.58 2663.84L1136.56 2663.87C1130.49 2673.76 1123.82 2684.61 1117.42 2695.31C1114.19 2700.71 1110.95 2706.15 1107.62 2711.92C1105.94 2714.84 1104.25 2717.8 1102.38 2721.19C1101.46 2722.86 1100.43 2724.74 1099.27 2726.99C1098.6 2728.29 1098.03 2729.39 1097.04 2731.45C1096.81 2731.93 1096.57 2732.44 1096.31 2733C1095.99 2733.71 1095.65 2734.47 1095.27 2735.35C1094.65 2736.95 1093.37 2739.48 1091.53 2746.2L1100.53 2725.94C1066.08 2781.91 1031.94 2833.77 997.641 2900.23L917.402 3063.18L1080.48 2988.44C1154.62 2953.1 1226.41 2916.26 1298.47 2882.82L1293.2 2884.67C1337.22 2868.15 1367.74 2851.57 1401.65 2835.96L1401.76 2835.92C1467.13 2805.67 1532.89 2776.06 1599.04 2747.07L1598.92 2747.12C1696.15 2704.15 1796.5 2665.94 1892.23 2615.7C1942.63 2589.51 1991.98 2561.51 2041 2533Z" fill="#FDCD2A"/>
<path d="M2231 2463.5C1963.8 2514.3 1446 2707.33 1220.5 2797.5L1027.5 2930C946.13 3002.44 908.087 3064.05 897.247 3081.6L897 3082C897 3082 1861.5 2730.5 2293 2594.5L2546 2444.5C2552.33 2429.67 2498.2 2412.7 2231 2463.5Z" fill="#FDCD2A"/>
<path fill-rule="evenodd" clip-rule="evenodd" d="M3743.5 2320.51C3971.08 2315.31 2860.5 2416.5 2166.5 2633L2125.5 2490C2445.5 2407 2976.5 2338.01 3743.5 2320.51Z" fill="url(#paint4_linear_44_1754)"/>
<defs>
<filter id="filter0_d_44_1754" x="415.909" y="437.812" width="2339.84" height="1362.04" filterUnits="userSpaceOnUse" color-interpolation-filters="sRGB">
<feFlood flood-opacity="0" result="BackgroundImageFix"/>
<feColorMatrix in="SourceAlpha" type="matrix" values="0 0 0 0 0 0 0 0 0 0 0 0 0 0 0 0 0 0 127 0" result="hardAlpha"/>
<feOffset dy="35"/>
<feGaussianBlur stdDeviation="17.1"/>
<feComposite in2="hardAlpha" operator="out"/>
<feColorMatrix type="matrix" values="0 0 0 0 0 0 0 0 0 0 0 0 0 0 0 0 0 0 0.71 0"/>
<feBlend mode="normal" in2="BackgroundImageFix" result="effect1_dropShadow_44_1754"/>
<feBlend mode="normal" in="SourceGraphic" in2="effect1_dropShadow_44_1754" result="shape"/>
</filter>
<filter id="filter1_d_44_1754" x="3497.94" y="452.301" width="1031.65" height="1100.28" filterUnits="userSpaceOnUse" color-interpolation-filters="sRGB">
<feFlood flood-opacity="0" result="BackgroundImageFix"/>
<feColorMatrix in="SourceAlpha" type="matrix" values="0 0 0 0 0 0 0 0 0 0 0 0 0 0 0 0 0 0 127 0" result="hardAlpha"/>
<feOffset dy="35"/>
<feGaussianBlur stdDeviation="17.1"/>
<feComposite in2="hardAlpha" operator="out"/>
<feColorMatrix type="matrix" values="0 0 0 0 0 0 0 0 0 0 0 0 0 0 0 0 0 0 0.71 0"/>
<feBlend mode="normal" in2="BackgroundImageFix" result="effect1_dropShadow_44_1754"/>
<feBlend mode="normal" in="SourceGraphic" in2="effect1_dropShadow_44_1754" result="shape"/>
</filter>
<filter id="filter2_d_44_1754" x="2669.79" y="425.012" width="893.787" height="967.405" filterUnits="userSpaceOnUse" color-interpolation-filters="sRGB">
<feFlood flood-opacity="0" result="BackgroundImageFix"/>
<feColorMatrix in="SourceAlpha" type="matrix" values="0 0 0 0 0 0 0 0 0 0 0 0 0 0 0 0 0 0 127 0" result="hardAlpha"/>
<feOffset dy="35"/>
<feGaussianBlur stdDeviation="17.1"/>
<feComposite in2="hardAlpha" operator="out"/>
<feColorMatrix type="matrix" values="0 0 0 0 0 0 0 0 0 0 0 0 0 0 0 0 0 0 0.71 0"/>
<feBlend mode="normal" in2="BackgroundImageFix" result="effect1_dropShadow_44_1754"/>
<feBlend mode="normal" in="SourceGraphic" in2="effect1_dropShadow_44_1754" result="shape"/>
</filter>
<linearGradient id="paint0_linear_44_1754" x1="610.5" y1="2653.15" x2="4184.5" y2="1774.15" gradientUnits="userSpaceOnUse">
<stop stop-color="#FDCD2A"/>
<stop offset="1" stop-color="#AAD8F1"/>
</linearGradient>
<linearGradient id="paint1_linear_44_1754" x1="378.5" y1="670.652" x2="4030.5" y2="2199.15" gradientUnits="userSpaceOnUse">
<stop stop-color="#A4D9FF"/>
<stop offset="1" stop-color="#FDCD2A"/>
</linearGradient>
<linearGradient id="paint2_linear_44_1754" x1="508.498" y1="489.652" x2="3922.5" y2="2244.15" gradientUnits="userSpaceOnUse">
<stop stop-color="#090D5C"/>
<stop offset="0.649038" stop-color="#0C0E3A"/>
<stop offset="1" stop-color="#040625"/>
</linearGradient>
<linearGradient id="paint3_linear_44_1754" x1="1711" y1="2265.21" x2="3470.5" y2="2265.21" gradientUnits="userSpaceOnUse">
<stop stop-color="#D8B197"/>
<stop offset="1" stop-color="#F3D9C8"/>
</linearGradient>
<linearGradient id="paint4_linear_44_1754" x1="2125.5" y1="2476.66" x2="3773.71" y2="2476.66" gradientUnits="userSpaceOnUse">
<stop stop-color="#FDCD2A"/>
<stop offset="1" stop-color="#F2B100"/>
</linearGradient>
</defs>
</svg>
